<svg viewBox="0 0 24 32.2384" xmlns="http://www.w3.org/2000/svg" xmlns:xlink="http://www.w3.org/1999/xlink" width="24.000000" height="32.238419" fill="none" customFrame="#000000">
	<g id="vuesax/outline/arrow-right">
		<g id="arrow-right">
			<path id="Vector" d="M14.43 25.2803C14.24 25.2803 14.05 25.1863 13.9 24.9848C13.61 24.5952 13.61 23.9505 13.9 23.5609L19.44 16.1192L13.9 8.67751C13.61 8.28796 13.61 7.64319 13.9 7.25365C14.19 6.8641 14.67 6.8641 14.96 7.25365L21.03 15.4073C21.32 15.7968 21.32 16.4416 21.03 16.8311L14.96 24.9848C14.81 25.1863 14.62 25.2803 14.43 25.2803Z" fill="rgb(0,0,0)" fill-rule="nonzero" />
			<path id="Vector" d="M20.33 17.1267L3.5 17.1267C3.09 17.1267 2.75 16.6699 2.75 16.1192C2.75 15.5685 3.09 15.1118 3.5 15.1118L20.33 15.1118C20.74 15.1118 21.08 15.5685 21.08 16.1192C21.08 16.6699 20.74 17.1267 20.33 17.1267Z" fill="rgb(0,0,0)" fill-rule="nonzero" />
			<path id="Vector" d="M24 0L0 0L0 32.2384L24 32.2384L24 0Z" opacity="0" fill="rgb(0,0,0)" fill-rule="evenodd" />
		</g>
	</g>
</svg>
