<svg viewBox="0 0 55 55" xmlns="http://www.w3.org/2000/svg" xmlns:xlink="http://www.w3.org/1999/xlink" width="55.000000" height="55.000000" fill="none" customFrame="#000000">
	<rect id="vuesax/bold/arrow-right" width="55.000000" height="55.000000" x="0.000000" y="0.000000" fill="rgb(255,255,255)" fill-opacity="0" />
	<g id="vuesax/bold/arrow-right">
		<g id="arrow-right">
			<path id="Vector" d="M27.5 4.58325C14.85 4.58325 4.58337 14.8499 4.58337 27.4999C4.58337 40.1499 14.85 50.4166 27.5 50.4166C40.15 50.4166 50.4167 40.1499 50.4167 27.4999C50.4167 14.8499 40.15 4.58325 27.5 4.58325ZM36.7355 28.7145L29.8605 35.5895C29.5167 35.9333 29.0813 36.0937 28.6459 36.0937C28.2105 36.0937 27.775 35.9333 27.4313 35.5895C26.7667 34.9249 26.7667 33.8249 27.4313 33.1603L31.373 29.2187L19.4792 29.2187C18.5396 29.2187 17.7605 28.4395 17.7605 27.4999C17.7605 26.5603 18.5396 25.7812 19.4792 25.7812L31.373 25.7812L27.4313 21.8395C26.7667 21.1749 26.7667 20.0749 27.4313 19.4103C28.0959 18.7458 29.1959 18.7458 29.8605 19.4103L36.7355 26.2853C37.4 26.9499 37.4 28.0499 36.7355 28.7145Z" fill="rgb(96,193,0)" fill-rule="nonzero" />
			<path id="Vector" opacity="0" transform="matrix(-1,-1.22465e-16,1.22465e-16,-1,55,55)" />
		</g>
	</g>
</svg>
