<svg viewBox="0 0 76.6001 76.6001" xmlns="http://www.w3.org/2000/svg" xmlns:xlink="http://www.w3.org/1999/xlink" width="76.600098" height="76.600098" fill="none" customFrame="#000000">
	<rect id="vuesax/bold/arrow-right" width="55.000000" height="55.000000" x="0.000000" y="0.000000" fill="rgb(255,255,255)" fill-opacity="0" transform="matrix(0.573576,0.819152,-0.819152,0.573576,45.0533,0)" />
	<g id="vuesax/bold/arrow-right">
		<g id="arrow-right">
			<path id="Vector" d="M22.9167 0C10.2667 0 0 10.2667 0 22.9167C0 35.5667 10.2667 45.8333 22.9167 45.8333C35.5667 45.8333 45.8333 35.5667 45.8333 22.9167C45.8333 10.2667 35.5667 0 22.9167 0ZM32.1521 24.1312L25.2771 31.0062C24.9333 31.35 24.4979 31.5104 24.0625 31.5104C23.6271 31.5104 23.1917 31.35 22.8479 31.0062C22.1833 30.3417 22.1833 29.2417 22.8479 28.5771L26.7896 24.6354L14.8958 24.6354C13.9562 24.6354 13.1771 23.8562 13.1771 22.9167C13.1771 21.9771 13.9562 21.1979 14.8958 21.1979L26.7896 21.1979L22.8479 17.2562C22.1833 16.5917 22.1833 15.4917 22.8479 14.8271C23.5125 14.1625 24.6125 14.1625 25.2771 14.8271L32.1521 21.7021C32.8167 22.3667 32.8167 23.4667 32.1521 24.1312Z" fill="rgb(255,255,255)" fill-rule="nonzero" transform="matrix(0.573576,0.819152,-0.819152,0.573576,43.9277,6.3833)" />
			<path id="Vector" opacity="0" transform="matrix(-0.573576,-0.819152,0.819152,-0.573576,31.5466,76.6001)" />
		</g>
	</g>
</svg>
