<svg viewBox="0 0 35 47.0143" xmlns="http://www.w3.org/2000/svg" xmlns:xlink="http://www.w3.org/1999/xlink" width="35.000000" height="47.014343" fill="none" customFrame="#000000">
	<g id="vuesax/outline/arrow-right">
		<g id="arrow-right">
			<path id="Vector" d="M21.0432 36.8671C20.7661 36.8671 20.4891 36.73 20.2703 36.4361C19.8474 35.868 19.8474 34.9277 20.2703 34.3596L28.3495 23.5072L20.2703 12.6547C19.8474 12.0866 19.8474 11.1463 20.2703 10.5782C20.6932 10.0101 21.3932 10.0101 21.8161 10.5782L30.6682 22.4689C31.0911 23.037 31.0911 23.9773 30.6682 24.5454L21.8161 36.4361C21.5974 36.73 21.3203 36.8671 21.0432 36.8671Z" fill="rgb(255,255,255)" fill-rule="nonzero" />
			<path id="Vector" d="M29.6473 24.9764L5.10352 24.9764C4.5056 24.9764 4.00977 24.3103 4.00977 23.5072C4.00977 22.704 4.5056 22.038 5.10352 22.038L29.6473 22.038C30.2452 22.038 30.741 22.704 30.741 23.5072C30.741 24.3103 30.2452 24.9764 29.6473 24.9764Z" fill="rgb(255,255,255)" fill-rule="nonzero" />
			<path id="Vector" d="M35 0L0 0L0 47.0143L35 47.0143L35 0Z" opacity="0" fill="rgb(255,255,255)" fill-rule="evenodd" />
		</g>
	</g>
</svg>
