<svg viewBox="0 0 35.1115 35.5469" xmlns="http://www.w3.org/2000/svg" xmlns:xlink="http://www.w3.org/1999/xlink" width="35.111450" height="35.546875" fill="none">
	<rect id="Social Icons" width="35.111465" height="35.546875" x="0.000000" y="0.000000" fill="rgb(255,255,255)" fill-opacity="0" />
	<path id="Vector" d="M35.1115 17.7734C35.1115 27.5894 27.2515 35.5469 17.5557 35.5469C7.85997 35.5469 0 27.5894 0 17.7734C0 7.95744 7.85997 0 17.5557 0C27.2515 0 35.1115 7.95744 35.1115 17.7734ZM18.1849 13.1211C16.4773 13.8402 13.0646 15.3284 7.94674 17.5858C7.11568 17.9204 6.68033 18.2477 6.6407 18.5678C6.57372 19.1087 7.24278 19.3216 8.15386 19.6117C8.27779 19.6511 8.4062 19.692 8.53785 19.7353C9.43421 20.0303 10.64 20.3754 11.2668 20.3891C11.8354 20.4016 12.47 20.1643 13.1707 19.6772C17.9524 16.4093 20.4208 14.7576 20.5758 14.722C20.6851 14.6969 20.8366 14.6653 20.9393 14.7576C21.0419 14.85 21.0318 15.025 21.0209 15.0719C20.9547 15.3579 18.3284 17.8299 16.9693 19.1091C16.5456 19.5079 16.245 19.7908 16.1836 19.8554C16.0459 20.0001 15.9057 20.137 15.7709 20.2685C14.9381 21.0813 14.3136 21.6907 15.8054 22.686C16.5223 23.1643 17.096 23.5598 17.6683 23.9544C18.2933 24.3853 18.9167 24.8151 19.7233 25.3503C19.9288 25.4867 20.1251 25.6284 20.3162 25.7663C21.0436 26.2913 21.6971 26.763 22.5044 26.6877C22.9735 26.644 23.4581 26.1975 23.7042 24.8656C24.2857 21.7179 25.4289 14.8978 25.6931 12.0874C25.7163 11.8412 25.6872 11.526 25.6638 11.3877C25.6404 11.2494 25.5915 11.0523 25.4139 10.9064C25.2036 10.7336 24.8789 10.6971 24.7336 10.6997C24.0733 10.7115 23.0603 11.0681 18.1849 13.1211Z" fill="rgb(0,0,0)" fill-rule="evenodd" />
</svg>
